PathFileType	4	(X/Y/Z)	 s03c0401.trc
DataRate	CameraRate	NumFrames	NumMarkers	Units	OrigDataRate	OrigDataStartFrame	OrigNumFrames
200	200	5	52	mm	200	1751	2000
Frame#	Time	racr			lacr			c7			jug			rlel			rdr			llel			ldr			s2			lic			ric			lasi			rasi			rpsi			lpsi			rgt			lgt			rth1			rth2			rth3			rth4			rlfc			rmfc			rsh1			rsh2			rsh3			rsh4			rlmal			rmmal			rcal			rtoe			rmt5			rmt1			lth1			lth2			lth4			lth3			llfc			lmfc			lsh1			lsh2			lsh3			lsh4			llmal			lmmal			lcal			ltoe			lmt1			lmt5			SBIKE			LBIKE			RBIKE			
		X1	Y1	Z1	X2	Y2	Z2	X3	Y3	Z3	X4	Y4	Z4	X5	Y5	Z5	X6	Y6	Z6	X7	Y7	Z7	X8	Y8	Z8	X9	Y9	Z9	X10	Y10	Z10	X11	Y11	Z11	X12	Y12	Z12	X13	Y13	Z13	X14	Y14	Z14	X15	Y15	Z15	X16	Y16	Z16	X17	Y17	Z17	X18	Y18	Z18	X19	Y19	Z19	X20	Y20	Z20	X21	Y21	Z21	X22	Y22	Z22	X23	Y23	Z23	X24	Y24	Z24	X25	Y25	Z25	X26	Y26	Z26	X27	Y27	Z27	X28	Y28	Z28	X29	Y29	Z29	X30	Y30	Z30	X31	Y31	Z31	X32	Y32	Z32	X33	Y33	Z33	X34	Y34	Z34	X35	Y35	Z35	X36	Y36	Z36	X37	Y37	Z37	X38	Y38	Z38	X39	Y39	Z39	X40	Y40	Z40	X41	Y41	Z41	X42	Y42	Z42	X43	Y43	Z43	X44	Y44	Z44	X45	Y45	Z45	X46	Y46	Z46	X47	Y47	Z47	X48	Y48	Z48	X49	Y49	Z49	X50	Y50	Z50	X51	Y51	Z51	X52	Y52	Z52	
1751	8.7550	714.196458	1461.204437	-41.478628	677.033838	1454.959220	-367.765546	640.516757	1543.460860	-201.470601	648.451649	1368.796213	-202.538564	598.957703	1206.203743	87.574993	740.880182	987.123867	-14.663696	601.342456	1224.512500	-519.961709	727.044971	979.201857	-425.035731	104.081676	1277.710766	-229.031341	301.647619	1289.593446	-394.874479	256.188204	1304.362052	-34.745749	308.165253	1217.301767	-349.749827	288.030723	1239.413196	-78.217755	128.774392	1329.536137	-187.794101	142.920896	1323.965410	-270.207444	215.531566	1220.727896	-20.547060	214.238511	1162.058470	-411.002725	333.245334	1119.216883	3.410221	418.476634	1092.776456	4.756567	478.866837	1031.355681	5.814556	436.325088	1120.556440	-12.968526	570.636926	938.199807	-14.850812	579.717222	917.415436	-143.348791	450.646263	826.579461	-0.553469	396.935460	758.186757	-21.403708	315.323707	725.625519	-26.470399	417.365451	737.725058	-45.129099	207.200528	650.103685	-53.258285	236.538697	649.252591	-138.103250	131.955882	660.646076	-92.258629	342.952810	436.466034	-122.666124	254.696692	505.529239	-42.788130	275.086979	506.247226	-158.142192	238.862918	1008.374876	-430.039870	272.887260	928.165959	-432.550863	309.164556	934.065613	-428.938814	262.731877	840.397406	-422.183462	306.049203	722.523631	-395.136804	304.579298	703.526643	-275.740511	251.475931	563.453528	-431.160566	256.942767	479.030004	-421.062419	217.829000	397.731648	-421.545272	290.130693	472.831211	-400.271411	184.649871	274.851891	-410.774300	218.330790	278.071060	-324.000218	115.553691	253.280334	-369.992306	403.953215	141.919842	-351.449246	312.869999	173.180316	-313.235295	286.886976	155.500276	-431.170785	-213.581249	946.546208	-231.741444	-5.967684	83.855831	-435.182516	-11.438192	81.409916	-34.786875	
1752	8.7600	713.091045	1461.275345	-39.678805	677.886770	1454.905748	-366.179997	639.997064	1543.204516	-200.040473	648.139209	1368.366582	-200.981108	597.845007	1205.767170	88.811461	740.834734	987.393769	-13.923230	601.728361	1224.808539	-519.056934	726.731512	978.887907	-425.219848	103.723332	1276.736646	-229.909985	302.315681	1288.581144	-394.658128	254.838341	1304.297526	-34.783108	308.644750	1216.657420	-349.325068	287.138523	1239.511967	-78.397417	127.857472	1328.944749	-188.599000	142.696377	1323.548605	-266.716323	214.770776	1220.300039	-20.827290	214.494230	1161.277579	-411.237540	333.863381	1119.944472	2.727279	419.300359	1094.320037	3.998134	480.319916	1033.535053	4.588265	436.982526	1122.561108	-13.339195	573.925995	942.913660	-16.548021	583.817700	923.609215	-147.088770	455.832892	830.154657	-1.933860	403.069350	761.446927	-21.925469	321.659517	727.549770	-27.011610	423.297712	740.725417	-47.157082	213.742879	650.692355	-53.534342	242.475893	650.493658	-138.704355	137.990476	659.815726	-91.856168	354.047435	440.753291	-122.869762	264.230529	507.761210	-42.903478	284.324652	508.961347	-158.348268	237.973551	1008.046945	-430.446359	271.145229	927.422785	-433.316734	307.471800	932.950835	-429.650322	260.011586	839.763102	-423.176594	302.299723	721.167446	-396.040234	300.897878	702.232192	-276.341492	245.948110	562.784671	-431.908457	250.721516	478.262610	-421.758924	210.913820	397.336611	-422.118450	284.052880	471.723203	-401.187795	176.871721	274.736467	-411.187742	210.847496	277.426517	-324.754786	107.699113	254.771073	-370.390540	393.897070	138.064900	-351.502630	303.284460	171.054034	-313.252175	277.102754	153.586009	-431.378335	-213.798896	946.616597	-231.546183	-5.972819	83.823160	-435.198625	-11.434477	81.354583	-34.771055	
1753	8.7650	712.020993	1461.196000	-37.987924	678.767568	1454.743930	-364.517322	639.648793	1542.862811	-198.643258	647.764663	1367.966083	-199.523506	596.702213	1205.291442	90.090894	740.629124	987.597941	-13.193633	602.133795	1225.130847	-518.211844	726.352617	978.548215	-425.367509	102.537000	1275.832873	-231.054522	302.808751	1287.904276	-394.328536	253.630178	1304.388156	-34.904211	308.915481	1216.192102	-348.927057	285.973719	1240.067262	-77.741528	126.631650	1328.627177	-189.137560	142.514927	1323.193131	-267.517326	213.914327	1219.858022	-20.954773	214.715712	1160.792723	-411.401370	334.314987	1120.522427	2.113549	419.904731	1095.549841	3.360005	481.560276	1035.416223	3.071389	437.443441	1124.299862	-13.613453	576.798850	947.327498	-18.413204	586.881188	928.435151	-148.075795	460.958358	833.210942	-3.695993	408.814250	763.701325	-23.133668	328.035843	728.504685	-27.807350	429.591827	743.620079	-47.578045	220.066052	650.349281	-53.758309	248.308290	650.917828	-139.188144	143.622115	657.942820	-91.594470	365.585623	444.490140	-123.327152	273.770671	509.284018	-42.877870	293.624652	510.948463	-158.397712	237.343248	1008.069082	-430.705706	269.774250	927.101475	-433.880219	306.190892	932.387624	-430.239762	257.881702	839.568672	-424.069586	299.322964	720.343625	-397.048336	298.168391	701.302749	-276.897446	241.081071	562.460675	-432.549395	244.937962	477.951542	-422.473989	204.243348	397.414677	-422.628859	278.504272	471.531543	-403.088629	169.001538	275.333105	-411.524003	203.474723	277.493556	-325.538193	99.754921	256.856181	-370.650405	383.661263	134.855350	-351.615486	293.848323	169.804039	-313.562979	267.239690	152.395423	-431.474987	-213.820328	946.567949	-231.561372	-5.993455	83.811737	-435.204900	-11.447566	81.355974	-34.771758	
1754	8.7700	711.159007	1460.861353	-36.335828	679.672268	1454.517205	-362.804244	639.458540	1542.365337	-197.301525	647.491047	1367.335186	-197.964135	595.513775	1204.856232	91.410525	740.330546	987.718670	-12.601456	602.562297	1225.444950	-517.493833	726.011804	978.258888	-425.395689	102.758898	1275.477601	-231.199705	303.003495	1287.450261	-393.953334	252.608019	1304.742074	-34.860936	308.878032	1215.960933	-348.624042	285.015319	1240.583113	-77.681981	126.203531	1328.399492	-189.351318	143.276617	1322.817131	-268.051518	213.087564	1219.600106	-20.918512	214.894363	1160.533939	-411.586944	334.731962	1120.916389	1.375250	420.362366	1096.586084	2.751171	482.428891	1036.875106	1.624782	437.814531	1125.818871	-13.865255	579.048697	951.390934	-20.155105	589.733963	932.920041	-150.196377	465.341837	835.618836	-5.227385	414.120491	765.353029	-24.400185	333.884546	728.858292	-28.337464	435.016178	745.698406	-49.086126	226.431469	649.370765	-53.679968	253.880866	650.617257	-139.633241	148.990216	655.164449	-91.340451	376.277962	447.782148	-123.182543	283.192375	510.229722	-43.033992	302.879879	512.383832	-158.435733	236.920295	1008.263248	-430.286400	268.874992	927.240534	-434.213101	305.298883	932.291031	-430.652547	256.470341	839.757986	-424.743875	297.123182	719.946999	-398.571310	296.617351	700.670324	-277.604018	236.783565	562.854440	-433.556468	239.664049	478.062099	-423.123837	197.909782	398.150381	-422.986638	273.260607	471.289749	-403.940454	161.226350	276.579854	-411.732071	196.250873	278.294320	-326.349901	91.875499	259.717392	-370.829141	373.412908	132.240590	-351.672485	284.284866	169.007742	-313.623136	257.305614	151.930280	-431.549665	-213.835008	946.515508	-231.601401	-6.008541	83.786146	-435.213483	-11.466593	81.318446	-34.766867	
1755	8.7750	710.386894	1460.407788	-34.800825	680.652472	1454.184566	-361.131374	639.417196	1541.694350	-195.986805	647.243440	1366.569329	-196.520970	594.158425	1204.470329	92.791935	739.992137	987.811595	-12.180604	602.910973	1225.835340	-516.814907	725.736377	978.034553	-425.373054	102.341299	1275.211319	-231.633636	302.927246	1287.207813	-393.509062	251.460495	1305.181671	-34.616893	308.547454	1215.971873	-348.378584	283.928593	1241.234776	-77.246396	125.685296	1328.334667	-190.197432	141.902935	1323.374067	-268.600292	212.358885	1219.747690	-20.656145	214.851145	1160.554822	-411.701674	335.012513	1121.178555	0.680184	420.763765	1097.347844	1.870446	483.092675	1038.165765	0.040171	438.110378	1127.046824	-14.198568	580.835161	955.006052	-21.357115	592.111586	936.961008	-152.684082	469.259286	837.440807	-6.747244	418.933310	766.308789	-25.673470	339.331139	728.598288	-28.935421	439.586982	747.130662	-51.053470	232.965048	648.375153	-52.869013	259.242974	649.545104	-139.902311	154.455955	651.363131	-90.767351	387.370873	450.712817	-123.339759	292.505962	510.368661	-43.174002	312.091509	513.240697	-158.397577	236.792094	1008.780910	-430.069569	268.448695	927.805145	-434.300444	304.870050	932.741547	-430.904066	255.815170	840.311267	-425.273938	295.944358	719.919224	-399.881174	296.163214	700.368719	-278.619660	233.474034	563.440414	-433.916197	234.946515	478.794433	-423.692913	191.944998	399.564823	-423.295062	268.498008	471.501063	-404.558696	153.539259	278.634176	-411.764841	189.214349	279.850955	-327.189372	84.095972	263.220427	-370.812942	363.096631	130.537784	-351.705829	274.620770	168.801869	-313.666502	247.375806	152.234934	-431.581118	-213.878726	946.470688	-231.572313	-6.025986	83.783820	-435.207017	-11.493422	81.323131	-34.764279	
